# xmcd
#
# Track frame offsets:
#	150
#	16061
#	32591
#	45036
#	67389
#	82170
#	101345
#	119180
#	136709
#	152166
#	167440
#	187957
#	202853
#	219078
#	239777
#
# Disc length: 3299 seconds
#
# Revision: 1
# Processed by: cddbd v1.4PL0 Copyright (c) Steve Scherf et al.
# Submitted via: audiograbber 1.82.01
#
DISCID=c10ce10f
DTITLE=Tony Bennett  - Playin' with My Friends: Bennett Sings the Blues
DYEAR=2001
DGENRE=Blues
TTITLE0=Alright, Okay, You Win - with Diana Krall
TTITLE1=Everyday (I Have The Blues) - with Stevie Wonder 
TTITLE2=Don't Cry Baby 
TTITLE3=Good Morning, Heartache - with Sheryl Crow 
TTITLE4=Let The Good Times Roll - with B.B. King 
TTITLE5=Evenin' - with Ray Charles 
TTITLE6=I Gotta Right To Sing The Blues - with Bonnie Raitt 
TTITLE7=Keep The Faith, Baby - with k.d. lang 
TTITLE8=Old Count Basie Is Gone 
TTITLE9=Blue And Sentimental - with Kay Starr 
TTITLE10=New York State Of Mind - with Billy Joel 
TTITLE11=Undecided Blues 
TTITLE12=Blues In The Night 
TTITLE13=Stormy Weather - with Natalie Cole 
TTITLE14=Playin' With My Friends - with various duet artists 
EXTD=
EXTT0=
EXTT1=
EXTT2=
EXTT3=
EXTT4=
EXTT5=
EXTT6=
EXTT7=
EXTT8=
EXTT9=
EXTT10=
EXTT11=
EXTT12=
EXTT13=
EXTT14=
PLAYORDER=
